<svg xmlns="http://www.w3.org/2000/svg" version="1.1" xmlns:xlink="http://www.w3.org/1999/xlink" xmlns:svgjs="http://svgjs.dev/svgjs" width="2000" height="494" viewBox="0 0 2000 494"><g transform="matrix(1,0,0,1,-1.2121212121212466,-0.5182684922066301)"><svg viewBox="0 0 396 98" data-background-color="#ffffff" preserveAspectRatio="xMidYMid meet" height="494" width="2000" xmlns="http://www.w3.org/2000/svg" xmlns:xlink="http://www.w3.org/1999/xlink"><g id="tight-bounds" transform="matrix(1,0,0,1,0.2400000000000091,0.10281439723937069)"><svg viewBox="0 0 395.52 97.79437120552126" height="97.79437120552126" width="395.52"><g><svg viewBox="0 0 556.6719792988974 137.6400338371476" height="97.79437120552126" width="395.52"><g transform="matrix(1,0,0,1,161.15197929889757,19.022609596885097)"><svg viewBox="0 0 395.5199999999999 99.5948146433774" height="99.5948146433774" width="395.5199999999999"><g id="textblocktransform"><svg viewBox="0 0 395.5199999999999 99.5948146433774" height="99.5948146433774" width="395.5199999999999" id="textblock"><g><svg viewBox="0 0 395.5199999999999 99.5948146433774" height="99.5948146433774" width="395.5199999999999"><g transform="matrix(1,0,0,1,0,0)"><svg width="395.5199999999999" viewBox="0.89453125 -36.3 172.14546875 43.349999999999994" height="99.5948146433774" data-palette-color="#ff204e"><g class="wordmark-text-0" data-fill-palette-color="primary" id="text-0"><path d="M6.9 0.2L6.9 0.2Q5.1 0.2 3.68-1.28 2.25-2.75 2.25-5.35L2.25-5.35Q2.25-6.65 2.6-8.33 2.95-10 3.38-11.75 3.8-13.5 4.15-15.05 4.5-16.6 4.5-17.65L4.5-17.65Q4.5-18.5 4.1-19.03 3.7-19.55 3.05-19.55L3.05-19.55Q2.2-19.55 1.2-18.55L1.2-18.55 0.9-18.75Q0.85-19.55 1.25-20.65 1.65-21.75 2.55-22.78 3.45-23.8 4.9-24.5 6.35-25.2 8.35-25.2L8.35-25.2Q10.6-25.2 11.73-23.63 12.85-22.05 12.85-19.85L12.85-19.85Q12.85-19.6 12.85-19.33 12.85-19.05 12.8-18.8L12.8-18.8Q13.75-20.35 15.03-21.8 16.3-23.25 17.93-24.23 19.55-25.2 21.45-25.2L21.45-25.2Q23.9-25.2 24.85-23.63 25.8-22.05 25.8-20.05L25.8-20.05Q25.8-19.65 25.78-19.28 25.75-18.9 25.7-18.55L25.7-18.55Q26.75-20.1 28.03-21.63 29.3-23.15 30.95-24.18 32.6-25.2 34.75-25.2L34.75-25.2Q37.4-25.2 38.38-23.65 39.35-22.1 39.35-20L39.35-20Q39.35-18.15 38.9-15.78 38.45-13.4 38-11.1 37.55-8.8 37.55-7.2L37.55-7.2Q37.55-6.25 37.83-5.65 38.1-5.05 38.75-5.05L38.75-5.05Q39.3-5.05 39.78-5.38 40.25-5.7 40.45-6.15L40.45-6.15 40.85-6Q40.85-4.15 39.8-2.75 38.75-1.35 37.15-0.58 35.55 0.2 33.95 0.2L33.95 0.2Q32 0.2 30.53-1.1 29.05-2.4 29.05-5.4L29.05-5.4Q29.05-7.25 29.53-9.4 30-11.55 30.48-13.58 30.95-15.6 30.95-16.9L30.95-16.9Q30.95-18.75 29.65-18.75L29.65-18.75Q28.7-18.75 27.78-17.98 26.85-17.2 26.13-15.93 25.4-14.65 24.95-13.25 24.5-11.85 24.5-10.55L24.5-10.55Q24.5-9.35 24.78-7.93 25.05-6.5 25.05-5.2L25.05-5.2Q25.05-2.6 23.6-1.2 22.15 0.2 20.2 0.2L20.2 0.2Q18.4 0.2 16.98-1 15.55-2.2 15.55-4.6L15.55-4.6Q15.55-5.7 15.85-7.28 16.15-8.85 16.53-10.58 16.9-12.3 17.2-13.9 17.5-15.5 17.5-16.7L17.5-16.7Q17.5-17.65 17.23-18.2 16.95-18.75 16.15-18.75L16.15-18.75Q15-18.75 13.95-17.6 12.9-16.45 12.15-14.83 11.4-13.2 11.15-11.7L11.15-11.7Q11.1-11.35 11.08-11.15 11.05-10.95 11.05-10.95L11.05-10.95Q11.05-9.4 11.4-8.13 11.75-6.85 11.75-5.5L11.75-5.5Q11.75-3.05 10.28-1.43 8.8 0.2 6.9 0.2ZM54.15 0.35L54.15 0.35Q50.4 0.35 47.95-1.15 45.5-2.65 44.32-5.13 43.15-7.6 43.15-10.4L43.15-10.4Q43.15-13.05 44.12-15.7 45.1-18.35 46.97-20.53 48.85-22.7 51.55-24.03 54.25-25.35 57.75-25.35L57.75-25.35Q61.5-25.35 63.92-23.83 66.35-22.3 67.52-19.8 68.7-17.3 68.7-14.45L68.7-14.45Q68.7-11.85 67.75-9.22 66.8-6.6 64.92-4.42 63.05-2.25 60.35-0.95 57.65 0.35 54.15 0.35ZM55.5-3.9L55.5-3.9Q56.85-3.9 57.75-5.3 58.65-6.7 59.1-8.88 59.55-11.05 59.55-13.3L59.55-13.3Q59.55-15.3 59.17-17.07 58.8-18.85 58.05-19.98 57.3-21.1 56.1-21.1L56.1-21.1Q54.8-21.1 53.87-19.7 52.95-18.3 52.5-16.15 52.05-14 52.05-11.7L52.05-11.7Q52.05-9.7 52.42-7.93 52.8-6.15 53.55-5.03 54.3-3.9 55.5-3.9ZM79.05 0.2L79.05 0.2Q76.14 0.2 74.44-1.33 72.75-2.85 72.75-6.05L72.75-6.05Q72.75-7.9 73.22-10 73.69-12.1 74.14-13.75L74.14-13.75Q74.59-15.35 74.87-16.55 75.14-17.75 75.14-18.4L75.14-18.4Q75.14-19.2 74.8-19.55 74.44-19.9 73.94-19.9L73.94-19.9Q72.75-19.9 71.94-18.75L71.94-18.75 71.75-18.95Q71.8-20.65 72.84-22.08 73.89-23.5 75.55-24.35 77.19-25.2 78.89-25.2L78.89-25.2Q80.8-25.2 82.14-24.08 83.5-22.95 83.39-20.55L83.39-20.55Q83.34-19.5 83.02-17.9 82.69-16.3 82.14-14.1L82.14-14.1Q81.8-12.7 81.42-10.93 81.05-9.15 81.05-7.7L81.05-7.7Q81.05-6.6 81.39-5.95 81.75-5.3 82.55-5.3L82.55-5.3Q83.59-5.3 84.87-6.48 86.14-7.65 87.09-10.33 88.05-13 88.19-17.45L88.19-17.45Q88.34-20.85 87.75-22.4L87.75-22.4 87.75-22.65Q88.19-23.35 89.12-24 90.05-24.65 91.19-25.08 92.34-25.5 93.34-25.5L93.34-25.5Q94.94-25.5 96.07-23.95 97.19-22.4 97.05-18.55L97.05-18.55Q96.94-14.85 95.72-11.85 94.5-8.85 92.55-6.6 90.59-4.35 88.27-2.85 85.94-1.35 83.55-0.58 81.14 0.2 79.05 0.2ZM108.74-26.75L108.74-26.75Q106.74-26.75 105.47-27.98 104.19-29.2 104.19-31.05L104.19-31.05Q104.19-33.05 105.69-34.5 107.19-35.95 109.34-35.95L109.34-35.95Q111.34-35.95 112.62-34.7 113.89-33.45 113.89-31.6L113.89-31.6Q113.89-29.6 112.39-28.18 110.89-26.75 108.74-26.75ZM105.24 0.2L105.24 0.2Q103.29 0.2 101.74-1.18 100.19-2.55 100.19-5.6L100.19-5.6Q100.19-7.35 100.67-8.88 101.14-10.4 101.77-11.85 102.39-13.3 102.87-14.68 103.34-16.05 103.34-17.4L103.34-17.4Q103.34-18.6 102.94-19.13 102.54-19.65 101.99-19.65L101.99-19.65Q101.14-19.65 100.34-18.55L100.34-18.55 99.99-18.75Q100.19-20.75 101.27-22.18 102.34-23.6 103.92-24.4 105.49-25.2 107.04-25.2L107.04-25.2Q108.94-25.2 110.34-23.98 111.74-22.75 111.74-20L111.74-20Q111.74-18.35 111.27-16.53 110.79-14.7 110.17-12.9 109.54-11.1 109.07-9.55 108.59-8 108.59-6.9L108.59-6.9Q108.59-5.95 108.97-5.55 109.34-5.15 109.79-5.15L109.79-5.15Q110.24-5.15 110.67-5.43 111.09-5.7 111.29-6.05L111.29-6.05 111.64-5.95Q111.64-4.1 110.67-2.73 109.69-1.35 108.24-0.58 106.79 0.2 105.24 0.2ZM126.34 0.35L126.34 0.35Q122.69 0.35 120.29-1.13 117.89-2.6 116.69-5.03 115.49-7.45 115.49-10.25L115.49-10.25Q115.49-12.9 116.52-15.58 117.54-18.25 119.52-20.45 121.49-22.65 124.31-24 127.14-25.35 130.69-25.35L130.69-25.35Q135.09-25.35 137.12-23.38 139.14-21.4 139.14-18.6L139.14-18.6Q139.14-16.2 137.87-14.18 136.59-12.15 134.49-10.93 132.39-9.7 129.89-9.7L129.89-9.7Q128.59-9.7 127.24-10.1 125.89-10.5 124.59-11.35L124.59-11.35Q124.84-8.25 126.39-6.85 127.94-5.45 130.09-5.45L130.09-5.45Q131.59-5.45 133.09-6.03 134.59-6.6 135.87-7.53 137.14-8.45 137.84-9.5L137.84-9.5 138.19-9.25Q138.19-6.65 137.12-4.83 136.04-3 134.29-1.85 132.54-0.7 130.47-0.18 128.39 0.35 126.34 0.35ZM127.49-13.15L127.49-13.15Q129.09-13.15 130.09-14.08 131.09-15 131.59-16.25 132.09-17.5 132.09-18.45L132.09-18.45Q132.09-19.6 131.44-20.38 130.79-21.15 129.64-21.15L129.64-21.15Q128.74-21.15 127.67-20.5 126.59-19.85 125.74-18.28 124.89-16.7 124.64-13.9L124.64-13.9Q126.24-13.15 127.49-13.15ZM167.19 7.05L167.19 7.05Q162.54 7.05 160.11 5.03 157.69 3 156.99 0.15L156.99 0.15Q156.39 0.2 155.79 0.28 155.19 0.35 154.54 0.35L154.54 0.35Q150.14 0.35 147.29-1.75 144.44-3.85 143.06-7.3 141.69-10.75 141.69-14.75L141.69-14.75Q141.69-18.55 142.89-22.35 144.09-26.15 146.36-29.3 148.64-32.45 151.94-34.38 155.24-36.3 159.49-36.3L159.49-36.3Q162.79-36.3 165.21-35.08 167.64-33.85 169.21-31.73 170.79-29.6 171.56-26.9 172.34-24.2 172.34-21.2L172.34-21.2Q172.34-17.25 171.06-13.28 169.79-9.3 167.29-6.08 164.79-2.85 161.19-1.15L161.19-1.15Q162.84-0.8 164.79-0.63 166.74-0.45 169.19-0.45L169.19-0.45Q170.04-0.45 170.96-0.45 171.89-0.45 172.84-0.5L172.84-0.5 173.04-0.1Q172.24 2.35 170.84 4.15 169.44 5.95 167.19 7.05ZM156.54-6L156.54-6Q158.24-6 159.51-7.2 160.79-8.4 161.66-10.38 162.54-12.35 162.99-14.75 163.44-17.15 163.44-19.6L163.44-19.6Q163.44-22.35 162.89-24.7 162.34-27.05 161.21-28.53 160.09-30 158.34-30L158.34-30Q156.44-30 155.01-28.83 153.59-27.65 152.61-25.7 151.64-23.75 151.14-21.35 150.64-18.95 150.64-16.55L150.64-16.55Q150.64-13.8 151.29-11.4 151.94-9 153.26-7.5 154.59-6 156.54-6Z" fill="#ff204e" data-fill-palette-color="primary"></path></g></svg></g></svg></g></svg></g></svg></g><g><svg viewBox="0 0 137.6400338371476 137.6400338371476" height="137.6400338371476" width="137.6400338371476"><g><svg xmlns="http://www.w3.org/2000/svg" xmlns:xlink="http://www.w3.org/1999/xlink" version="1.1" x="0" y="0" viewBox="0 0 100 100" style="enable-background:new 0 0 100 100;" xml:space="preserve" height="137.6400338371476" width="137.6400338371476" class="icon-icon-0" data-fill-palette-color="accent" id="icon-0"><path d="M87.427 25H75.086L87.5 12.549 75.232 0H57.837L70.301 12.451 57.531 25H42.773L55.457 12.549 42.92 0H25.244L37.695 12.451 24.927 25H12.402L25.097 12.549 12.549 0H0V100H100V0H87.744L100 12.5zM87.5 87.365H12.5V74.865H87.5zM87.5 62.5H12.5V50H87.5z" fill="#ff204e" data-fill-palette-color="accent"></path></svg></g></svg></g></svg></g><defs></defs></svg><rect width="395.52" height="97.79437120552126" fill="none" stroke="none" visibility="hidden"></rect></g></svg></g></svg>